<?xml version="1.0" encoding="utf-8"?>
<!-- Generator: Adobe Illustrator 17.0.0, SVG Export Plug-In . SVG Version: 6.00 Build 0)  -->
<!DOCTYPE svg PUBLIC "-//W3C//DTD SVG 1.1//EN" "http://www.w3.org/Graphics/SVG/1.1/DTD/svg11.dtd">
<svg version="1.1" id="Layer_1" xmlns="http://www.w3.org/2000/svg" xmlns:xlink="http://www.w3.org/1999/xlink" x="0px" y="0px"
	 width="300px" height="300px" viewBox="0 0 300 300" enable-background="new 0 0 300 300" xml:space="preserve">
<path fill="#2E2E2F" stroke="#000000" stroke-miterlimit="10" d="M82.007,210.621c0,11.293-2.113,20.449-12.375,20.449
	c-8.753,0-11.62-9.155-11.62-20.449s4.786-20.449,11.62-20.449S82.007,199.327,82.007,210.621z"/>
<path fill="#2E2E2F" stroke="#000000" stroke-miterlimit="10" d="M148.106,206.848c0,9.21-2.113,16.676-12.375,16.676
	c-8.753,0-11.62-7.466-11.62-16.676s4.786-16.676,11.62-16.676S148.106,197.638,148.106,206.848z"/>
<ellipse stroke="#000000" stroke-miterlimit="10" cx="178.371" cy="197.233" rx="8.167" ry="16.542"/>
<path fill="#48484A" stroke="#000000" stroke-miterlimit="10" d="M160.498,229.318c0,0,13.521,1.241,15.415,0
	s5.836-12.662,5.81-19.809c-0.023-6.299,0.852-22.518-5.288-23.041c-6.14-0.523-18.747,27.304-18.747,30.439
	S158.538,228.338,160.498,229.318z"/>
<path fill="#C7C8CA" stroke="#000000" stroke-miterlimit="10" d="M178.04,192.858c-1.137-0.114-3.794,5.194-3.942,14.588
	c-0.147,9.394,0.461,17.395,2.358,17.388c1.897-0.007,3.942-10.794,3.831-15.546C180.177,204.536,180.619,193.116,178.04,192.858z"
	/>
<ellipse stroke="#000000" stroke-miterlimit="10" cx="236.955" cy="194.795" rx="9.563" ry="14.938"/>
<path fill="#48484A" stroke="#000000" stroke-miterlimit="10" d="M216.603,212.354c0,0,0.915,9.528,3.659,10.748
	c2.744,1.22,12.618,0.659,14.864,0c1.114-0.327,7.013-6.174,6.174-18.294s-0.534-18.523-5.412-18.904
	C231.01,185.522,216.146,201.53,216.603,212.354z"/>
<path fill="#C7C8CA" stroke="#000000" stroke-miterlimit="10" d="M235.455,189.42c1.124-0.051,4.999,2.752,4.75,14.625
	c-0.249,11.873-2.75,14.313-4.438,14.563s-5.438-6.875-4.813-14.875S232.705,189.545,235.455,189.42z"/>
<path fill="#A7A590" stroke="#000000" stroke-miterlimit="10" d="M92.824,151.53c-0.932-0.647-5.203-1.372-6.032-1.217
	c-0.828,0.155-2.433,1.32-2.666,2.201c-0.233,0.88-0.725,4.194,0,4.686s5.928,4.064,5.928,4.064l3.806-6.239
	C93.86,155.025,93.756,152.177,92.824,151.53z"/>
<path fill="#D6D3B6" stroke="#000000" stroke-miterlimit="10" d="M249.363,174.139c-0.87-2.72-2.284-7.615-2.284-7.615
	s-2.23-10.225-3.1-10.552s-10.878-1.197-11.966-0.816c0,0-13.978-19.145-17.459-20.342c-3.481-1.197-24.639-5.385-42.86-5.493
	s-42.94-1.628-54.782,2.171c-8.804,2.824-25.485,29.927-29.088,30.626c-1.438,0.279-25.727,4.95-29.153,8.322
	c-3.427,3.372-3.318,3.916-3.916,5.167c-0.598,1.251-0.979,12.347-0.979,12.347s-2.937,0.707-3.1,1.795
	c-0.163,1.088-1.033,6.69,0,7.288c1.033,0.598,1.632,1.305,1.632,1.305s-0.272,7.451-0.381,7.669
	c-0.109,0.218-1.555,5.592,1.017,6.06c1.555,0.282,94.829,5.936,98.503,5.653s14.274,1.151,14.839,0.01s4.24-40.288,12.861-35.059
	c8.621,5.229,4.946,25.001,3.392,27.057c-1.555,2.056-1.759,7.241-1.759,7.241s1.986,0.468,5.759-0.097s37.408-3.801,38.398-3.102
	c0.989,0.699,1.38,0.699,2.457-0.714c1.077-1.413,3.055-28.406,11.535-28.972s3.053,25.877,2.455,26.638
	c0,0,0.312,0.343,1.618-0.201c1.305-0.544,4.841-2.991,4.732-3.318s-1.123-1.088-1.214-2.121c-0.091-1.033,3.281-6.908,3.172-9.029
	C249.581,193.937,250.233,176.859,249.363,174.139z M238.97,161.847c0,0-2.203-0.18-2.723-0.421
	c-0.521-0.24-2.223-3.264-2.223-3.264c0.12-0.04,5.847,0.04,5.807,0.445C239.791,159.013,238.97,161.847,238.97,161.847z"/>
<line fill="none" stroke="#000000" stroke-miterlimit="10" x1="234.074" y1="158.251" x2="232.012" y2="155.157"/>
<path fill="none" stroke="#000000" stroke-miterlimit="10" d="M181.755,167.17c0,0-18.822,3.736-21.914,4.754
	s-10.971,3.809-11.047,6.486"/>
<path fill="none" stroke="#000000" stroke-miterlimit="10" d="M186.538,208.023c0,0,2.62-4.179,3.095-14.146
	c0.475-9.967,3.448-21.794-1.608-25.985"/>
<path fill="none" stroke="#000000" stroke-miterlimit="10" d="M214.441,166.201c0,0,5.211,4.421,4.974,8.811
	s0.968,25.201-4.974,31.644"/>
<path fill="none" stroke="#000000" stroke-miterlimit="10" d="M232.448,165.64c0,0,5.132-0.05,6.675,0
	c1.543,0.05,7.932,0.778,7.932,0.778"/>
<path fill="none" stroke="#000000" stroke-miterlimit="10" d="M169.722,192.856c0,0-11.63,0.223-13.992,0
	c-2.363-0.223-99.561-4.068-101.955-4.902"/>
<polygon fill="#FFFDE9" stroke="#000000" stroke-miterlimit="10" points="55.786,199.561 55.786,204.829 66.731,205.642 
	66.731,200.169 "/>
<polygon fill="#FFFDE9" stroke="#000000" stroke-miterlimit="10" points="136.898,203.21 136.898,208.845 151.005,209.733 
	151.005,204.017 "/>
<path fill="#FBAA3D" stroke="#000000" stroke-miterlimit="10" d="M57.705,194.672c0,1.278,0.343,2.132,1.225,2.132
	S64.321,197,64.321,197s1.225-0.539,1.225-1.642c0-1.103,0.147-2.303-1.225-2.352c-1.372-0.049-5.611-0.196-5.611-0.196
	S57.705,193.324,57.705,194.672z"/>
<path fill="#FBAA3D" stroke="#000000" stroke-miterlimit="10" d="M136.109,198.157c-0.084,1.195-0.188,2.302,1.228,2.333
	c1.416,0.032,6.565,0.284,6.615,0.284c0.543,0.002,1.489-0.946,1.363-1.797s0.017-1.734-1.363-1.987s-4.751-0.44-6.425-0.441
	C136.549,196.549,136.147,197.614,136.109,198.157z"/>
<path fill="#48484A" stroke="#000000" stroke-miterlimit="10" d="M151.852,181.425c-1.175-3.165-3.978-3.255-4.973-3.345
	c-0.995-0.09-41.863-2.984-46.203-3.255c-4.34-0.271-37.071-0.633-41.14-0.452c-4.069,0.181-3.75,3.707-3.75,3.707l-0.006,5.606
	c0.132,1.808,0.953,2.713,2.231,2.775c1.279,0.063,39.771,2.378,42.845,2.288c3.074-0.09,49.277,1.808,50.995,1.423
	C153.57,189.787,153.027,184.59,151.852,181.425z"/>
<ellipse fill="#FFFDE9" stroke="#000000" stroke-miterlimit="10" cx="62.98" cy="179.836" rx="4.603" ry="5.296"/>
<ellipse fill="#FFFDE9" stroke="#000000" stroke-miterlimit="10" cx="74.003" cy="180.476" rx="4.973" ry="5.561"/>
<ellipse fill="#FFFDE9" stroke="#000000" stroke-miterlimit="10" cx="131.282" cy="183.279" rx="5.199" ry="5.561"/>
<ellipse fill="#FFFDE9" stroke="#000000" stroke-miterlimit="10" cx="144.642" cy="183.641" rx="4.996" ry="5.561"/>
<path fill="#7B7C7F" stroke="#000000" stroke-miterlimit="10" d="M90.302,176.335c0,0,0.572-1.76,2.234-1.729
	s14.787,0.407,16.204,0.77s2.038,0.512,1.963,1.852c-0.074,1.34,0.596,10.986-0.72,11.611c-1.315,0.625-16.828,0.302-18.019-1.088
	S90.302,181.373,90.302,176.335z"/>
<path fill="#E6E7E8" stroke="#000000" stroke-miterlimit="10" d="M100.676,174.825c0,0-0.647,10.814,0.297,14.228"/>
<path fill="#7B7C7F" stroke="#000000" stroke-miterlimit="10" d="M68.243,192.282c0,0-0.577,1.539,0,1.667
	c0.577,0.128,60.906,3.601,62.702,3.051c0,0,0.898-2.165-0.385-2.095c-1.282,0.07-30.004-0.699-31.607-0.827
	C97.35,193.949,68.756,192.154,68.243,192.282z"/>
<path fill="#FFFFFF" stroke="#000000" stroke-miterlimit="10" d="M80.041,199.561c0,0,13.911,0.799,16.924,0.927
	c3.013,0.128,19.682,1.09,19.682,1.09l0.449-7.437c0,0-0.256-1.253-1.09-1.332c-0.833-0.079-15.195-0.22-16.733-0.534
	S80.873,191,80.873,191s-0.69-0.091-0.832,0.898C79.899,192.886,79.401,198.827,80.041,199.561z"/>
<path fill="#E4E5E6" stroke="#000000" stroke-miterlimit="10" d="M90.302,160.42c0,0,21.025-1.691,40.98-0.725
	s49.009,4.47,49.009,4.47s2.96,0.668,4.289-2.384c1.329-3.052,2.224-19.12,1.958-22.261c-0.266-3.141-1.354-5.436-6.247-6.161
	s-60.034-3.098-63.195-1.942C113.936,132.573,96.417,144.11,90.302,160.42z"/>
<path fill="#E4E5E6" stroke="#000000" stroke-miterlimit="10" d="M188.025,167.17c0,0,23.786-1.198,26.77-0.95
	c2.984,0.249,17.653-0.58,17.653-0.58s-4.144-13.095-5.636-14.753c-1.492-1.658-9.863-14.753-12.846-15.581
	c-2.984-0.829-22.46-2.072-24.284-0.58c-1.823,1.492-0.829,23.455-1.16,25.113C188.19,161.496,188.025,167.17,188.025,167.17z"/>
<path fill="#48484A" stroke="#000000" stroke-miterlimit="10" d="M211.663,150.19c-1.08-2.74-6.215-15.825-6.215-15.825
	l-3.325-0.187c0,0,4.229,9.716,4.994,12.506s3.736,19.516,3.736,19.516h4.996C215.849,166.201,212.743,152.93,211.663,150.19z"/>
<line fill="none" stroke="#000000" stroke-miterlimit="10" x1="183.632" y1="208.165" x2="228.815" y2="205.951"/>
<path fill="#A7A590" stroke="#000000" stroke-miterlimit="10" d="M189.124,155.436c0,0,0.645-0.484,0.999-0.29
	c0.355,0.193,0.484,2.45,1.064,2.482c0.58,0.032,1.999-2.611,2.966-2.708c0.967-0.097,9.928-0.387,10.541,0.258
	s1.773,6.898,0.29,7.769c-1.483,0.87-16.214,4.223-16.214,4.223h-0.745C188.025,167.17,187.996,156.178,189.124,155.436z"/>
<path fill="#565759" stroke="#000000" stroke-miterlimit="10" d="M213.455,172.045c0,0,0.875,3.5,1.625,3.625
	s1.422-0.031,1.75-0.156s1.031-2.563,0.688-2.984S213.845,171.436,213.455,172.045z"/>
</svg>
